<svg xmlns="http://www.w3.org/2000/svg" viewBox="0 0 200 80" width="200" height="80">
  <!-- Red splat background -->
  <path d="M38.5,12.2c-1.8,1.8-4.7,1.8-6.5,0L19.7,0l-3.2,12.2c-0.5,2.5-2.9,4.1-5.4,3.6L0,14.2l4.3,11.9
    c0.9,2.4-0.4,5-2.7,5.9L0,32.6l11.3,4.1c2.4,0.9,3.6,3.5,2.7,5.9L9.7,53.4l11.9-1.6c2.5-0.5,4.9,1.1,5.4,3.6l1.6,11.9l9.3-7.6
    c1.8-1.8,4.7-1.8,6.5,0l7.6,9.3L53.6,57c0.5-2.5,2.9-4.1,5.4-3.6l11.9,1.6l-5.9-10.8c-0.9-2.4,0.4-5,2.7-5.9l11.3-4.1l-11.3-4.1
    c-2.4-0.9-3.6-3.5-2.7-5.9l4.3-11.9l-11.1,1.6c-2.5,0.5-4.9-1.1-5.4-3.6L49.8,0L38.5,12.2z" fill="#e71d1d"/>
  
  <!-- Splat spikes -->
  <path d="M32,10c0,0-4.4,8.9-4.4,9.6s2.2,2.2,2.2,2.2S20.7,30,20,30s-2.2-2.2-2.2-2.2S8.9,31.8,8.2,31.8S6,29.6,6,29.6
    s-3,9.1-3,9.8s2.2,2.2,2.2,2.2s-9.1,3-9.8,3s-2.2-2.2-2.2-2.2s3-9.1,3-9.8s-2.2-2.2-2.2-2.2s9.1-3,9.8-3s2.2,2.2,2.2,2.2
    s8.9-4.4,9.6-4.4s2.2,2.2,2.2,2.2s8.9-4.4,9.6-4.4S27,28,27,28s8.9-4.4,9.6-4.4s2.2,2.2,2.2,2.2s8.9-4.4,9.6-4.4s2.2,2.2,2.2,2.2
    s9.1-3,9.8-3s2.2,2.2,2.2,2.2s-3,9.1-3,9.8s2.2,2.2,2.2,2.2s-9.1,3-9.8,3s-2.2-2.2-2.2-2.2s-8.9,4.4-9.6,4.4S38,38,38,38
    s-8.9,4.4-9.6,4.4S26.2,40.2,26.2,40.2S17.3,44.6,16.6,44.6s-2.2-2.2-2.2-2.2S5.3,45.4,4.6,45.4s-2.2-2.2-2.2-2.2s-3,9.1-3,9.8
    s2.2,2.2,2.2,2.2s9.1-3,9.8-3s2.2,2.2,2.2,2.2s8.9-4.4,9.6-4.4s2.2,2.2,2.2,2.2s8.9-4.4,9.6-4.4s2.2,2.2,2.2,2.2" fill="#e71d1d" opacity="0.7"/>
  
  <!-- Yellow dot accent -->
  <circle cx="45" cy="25" r="5" fill="#f9a825"/>
  
  <!-- Pinned text -->
  <text x="80" y="48" font-family="'Arial Black', sans-serif" font-size="32" font-weight="900" fill="#0e1319">pinned</text>
</svg> <svg xmlns="http://www.w3.org/2000/svg" viewBox="0 0 200 80" width="200" height="80">
  <!-- Red splat background -->
  <path d="M38.5,12.2c-1.8,1.8-4.7,1.8-6.5,0L19.7,0l-3.2,12.2c-0.5,2.5-2.9,4.1-5.4,3.6L0,14.2l4.3,11.9
    c0.9,2.4-0.4,5-2.7,5.9L0,32.6l11.3,4.1c2.4,0.9,3.6,3.5,2.7,5.9L9.7,53.4l11.9-1.6c2.5-0.5,4.9,1.1,5.4,3.6l1.6,11.9l9.3-7.6
    c1.8-1.8,4.7-1.8,6.5,0l7.6,9.3L53.6,57c0.5-2.5,2.9-4.1,5.4-3.6l11.9,1.6l-5.9-10.8c-0.9-2.4,0.4-5,2.7-5.9l11.3-4.1l-11.3-4.1
    c-2.4-0.9-3.6-3.5-2.7-5.9l4.3-11.9l-11.1,1.6c-2.5,0.5-4.9-1.1-5.4-3.6L49.8,0L38.5,12.2z" fill="#e71d1d"/>
  
  <!-- Splat spikes -->
  <path d="M32,10c0,0-4.4,8.9-4.4,9.6s2.2,2.2,2.2,2.2S20.7,30,20,30s-2.2-2.2-2.2-2.2S8.9,31.8,8.2,31.8S6,29.6,6,29.6
    s-3,9.1-3,9.8s2.2,2.2,2.2,2.2s-9.1,3-9.8,3s-2.2-2.2-2.2-2.2s3-9.1,3-9.8s-2.2-2.2-2.2-2.2s9.1-3,9.8-3s2.2,2.2,2.2,2.2
    s8.9-4.4,9.6-4.4s2.2,2.2,2.2,2.2s8.9-4.4,9.6-4.4S27,28,27,28s8.9-4.4,9.6-4.4s2.2,2.2,2.2,2.2s8.9-4.4,9.6-4.4s2.2,2.2,2.2,2.2
    s9.1-3,9.8-3s2.2,2.2,2.2,2.2s-3,9.1-3,9.8s2.2,2.2,2.2,2.2s-9.1,3-9.8,3s-2.2-2.2-2.2-2.2s-8.9,4.4-9.6,4.4S38,38,38,38
    s-8.9,4.4-9.6,4.4S26.2,40.2,26.2,40.2S17.3,44.6,16.6,44.6s-2.2-2.2-2.2-2.2S5.3,45.4,4.6,45.4s-2.2-2.2-2.2-2.2s-3,9.1-3,9.8
    s2.2,2.2,2.2,2.2s9.1-3,9.8-3s2.2,2.2,2.2,2.2s8.9-4.4,9.6-4.4s2.2,2.2,2.2,2.2s8.9-4.4,9.6-4.4s2.2,2.2,2.2,2.2" fill="#e71d1d" opacity="0.7"/>
  
  <!-- Yellow dot accent -->
  <circle cx="45" cy="25" r="5" fill="#f9a825"/>
  
  <!-- Pinned text -->
  <text x="80" y="48" font-family="'Arial Black', sans-serif" font-size="32" font-weight="900" fill="#0e1319">pinned</text>
</svg> 